<svg width="1652" height="649" viewBox="0 0 1652 649" fill="none" xmlns="http://www.w3.org/2000/svg">
<g opacity="0.05" clip-path="url(#clip0_2_297)">
<path d="M1033.85 316.897C1033.55 318.497 1028.85 323.297 1024.15 326.797C1010.35 336.897 985.652 346.297 960.552 350.797C946.252 353.397 931.952 353.797 927.652 351.697C924.852 350.297 924.452 349.197 925.452 345.597C927.552 338.097 934.352 329.897 944.952 322.197C950.352 318.297 972.252 304.997 982.452 299.397C999.252 290.197 1012.85 284.697 1022.05 283.397C1024.95 282.997 1028.45 282.897 1029.55 283.397C1031.35 284.097 1033.35 289.397 1034.15 295.797C1034.55 299.197 1034.35 314.197 1033.85 316.897Z" fill="black"/>
<path d="M798.252 349.997C797.652 351.197 794.652 352.497 791.252 352.997C787.852 353.497 777.452 353.197 771.552 352.497C750.352 349.697 727.852 343.197 711.452 335.197C702.252 330.697 695.652 326.197 690.752 321.297L687.952 318.397L687.652 314.597C687.152 307.997 687.252 297.597 688.052 293.897C688.552 290.797 689.652 287.797 691.152 285.097C691.952 284.097 691.952 284.097 695.552 284.097C699.952 284.097 703.652 284.797 709.652 286.697C721.952 290.497 740.252 299.697 762.552 313.097C780.952 324.097 787.852 329.497 793.152 336.897C796.752 341.497 799.152 347.997 798.252 349.997Z" fill="black"/>
<path d="M939.852 489.197C939.852 489.497 938.652 494.297 937.152 499.997C935.652 505.697 934.452 510.297 934.452 510.497C933.352 510.597 932.352 510.697 931.252 510.597H928.052L923.652 520.997C921.252 526.697 919.052 531.997 918.752 532.797L918.152 534.197L916.052 530.797L913.952 527.397V499.697L913.152 499.897C911.452 500.297 899.352 501.897 894.052 502.397C872.152 504.597 850.152 504.097 828.352 500.997C824.852 500.497 821.852 500.097 821.752 500.197C821.652 500.297 821.752 506.697 821.952 514.597L822.252 528.797L820.552 531.397C819.652 532.797 818.752 533.997 818.752 534.097C818.452 534.397 817.452 532.797 815.152 528.197C812.652 523.397 810.852 518.297 809.552 512.997L808.852 510.097L805.752 510.297L802.652 510.597L801.852 506.897C801.452 504.897 800.952 501.797 800.752 500.097L800.452 496.897L797.852 494.597C796.352 493.297 794.852 491.997 794.552 491.797C794.052 491.397 793.852 490.697 793.852 490.097V488.897L806.352 488.997L818.852 489.097L819.252 490.397L819.652 491.697L823.952 491.897C826.352 491.997 833.952 492.197 840.752 492.397L853.252 492.697L856.452 487.697L859.752 482.697H863.952L863.852 472.297L863.752 461.897L858.252 459.497C840.552 451.697 830.152 442.797 826.252 431.997C825.452 429.797 825.452 428.997 825.252 418.997C825.152 409.097 825.152 408.197 825.852 405.997C827.252 400.997 831.152 397.097 836.152 395.797C837.852 395.297 842.352 395.297 865.952 395.297L893.752 395.397L896.852 396.897C900.552 398.697 902.252 399.997 904.352 402.797C906.752 405.997 907.452 408.497 907.452 414.597C907.452 423.297 906.852 430.797 905.952 433.797C904.652 437.897 902.652 441.797 900.152 445.297C895.152 451.697 886.052 458.097 877.752 460.997L875.352 461.897L875.452 472.397L875.552 482.897L877.752 483.097L879.952 483.297L882.952 487.797L885.852 492.297H899.252C906.652 492.297 913.152 492.397 913.752 492.497C914.752 492.697 914.952 492.597 915.952 490.897L917.152 489.097H928.652C937.252 488.697 939.852 488.897 939.852 489.197Z" fill="black"/>
<path d="M887.052 517.897C885.152 518.997 883.852 519.497 883.552 519.297C883.252 519.197 881.852 517.997 880.352 516.897L877.652 514.697L874.852 517.697C868.752 524.297 868.552 524.597 866.752 524.697C863.952 524.997 863.352 524.497 859.952 519.397C858.152 516.797 856.752 514.597 856.752 514.597C856.752 514.597 855.452 514.397 853.952 514.297L851.152 513.997L849.852 516.697L848.552 519.397L846.252 518.697C844.452 518.097 842.652 517.397 840.952 516.597L837.952 515.097V509.397L864.552 509.497L891.152 509.597L891.252 512.297C891.352 515.497 891.452 515.397 887.052 517.897Z" fill="black"/>
<path d="M1137.05 395.897C1136.95 395.497 1136.95 394.797 1136.85 393.697C1112.85 391.097 1044.35 389.497 980.752 441.997C980.752 441.997 960.252 347.997 864.252 347.997C768.252 347.997 732.652 441.997 732.652 441.997C678.852 384.097 606.852 388.297 580.852 392.097C580.852 392.697 580.752 393.397 580.752 393.997C579.952 408.497 580.352 415.397 582.752 424.497C590.252 452.997 613.352 484.397 649.552 515.197C708.852 565.597 789.252 601.997 850.152 606.197C913.652 610.497 1007.35 573.397 1069.75 519.197C1079.55 510.497 1088.75 501.297 1097.35 491.497C1103.55 484.297 1112.75 471.897 1112.05 471.897C1111.85 471.897 1112.05 471.697 1112.45 471.497C1112.75 471.297 1113.05 470.997 1112.85 470.797C1112.75 470.697 1112.95 470.397 1113.25 470.297C1113.55 470.197 1113.75 469.997 1113.65 469.797C1113.55 469.597 1113.65 469.397 1114.05 469.297C1114.35 469.197 1114.45 468.897 1114.35 468.697C1114.25 468.497 1114.35 468.297 1114.55 468.297C1114.75 468.297 1114.95 467.997 1114.95 467.797C1114.95 467.597 1115.15 467.297 1115.35 467.297C1115.55 467.297 1115.75 467.097 1115.75 466.897C1116.05 466.097 1116.55 465.297 1117.05 464.597C1118.55 462.297 1124.55 451.597 1125.35 449.797C1131.05 436.897 1134.65 425.397 1136.35 413.897C1136.95 408.397 1137.45 398.297 1137.05 395.897ZM887.052 517.897C885.152 518.997 883.852 519.497 883.552 519.297C883.252 519.197 881.852 517.997 880.352 516.897L877.652 514.697L874.852 517.697C868.752 524.297 868.552 524.597 866.752 524.697C863.952 524.997 863.352 524.497 859.952 519.397C858.152 516.797 856.752 514.597 856.752 514.597C856.752 514.597 855.452 514.397 853.952 514.297L851.152 513.997L849.852 516.697L848.552 519.397L846.252 518.697C844.452 518.097 842.652 517.397 840.952 516.597L837.952 515.097V509.397L864.552 509.497L891.152 509.597L891.252 512.297C891.352 515.497 891.452 515.397 887.052 517.897ZM937.052 499.897C935.552 505.597 934.352 510.197 934.352 510.397C933.252 510.497 932.252 510.597 931.152 510.497H927.952L923.652 520.997C921.252 526.697 919.052 531.997 918.752 532.797L918.152 534.197L916.052 530.797L913.952 527.397V499.697L913.152 499.897C911.452 500.297 899.352 501.897 894.052 502.397C872.152 504.597 850.152 504.097 828.352 500.997C824.852 500.497 821.852 500.097 821.752 500.197C821.652 500.297 821.752 506.697 821.952 514.597L822.252 528.797L820.552 531.397C819.652 532.797 818.752 533.997 818.752 534.097C818.452 534.397 817.452 532.797 815.152 528.197C812.652 523.397 810.852 518.297 809.552 512.997L808.852 510.097L805.752 510.297L802.652 510.597L801.852 506.897C801.452 504.897 800.952 501.797 800.752 500.097L800.452 496.897L797.852 494.597C796.352 493.297 794.852 491.997 794.552 491.797C794.052 491.397 793.852 490.697 793.852 490.097V488.897L806.352 488.997L818.852 489.097L819.252 490.397L819.652 491.697L823.952 491.897C826.352 491.997 833.952 492.197 840.752 492.397L853.252 492.697L856.452 487.697L859.752 482.697H863.952L863.852 472.297L863.752 461.897L858.252 459.497C840.552 451.697 830.152 442.797 826.252 431.997C825.452 429.797 825.452 428.997 825.252 418.997C825.152 409.097 825.152 408.197 825.852 405.997C827.252 400.997 831.152 397.097 836.152 395.797C837.852 395.297 842.352 395.297 865.952 395.297L893.752 395.397L896.852 396.897C900.552 398.697 902.252 399.997 904.352 402.797C906.752 405.997 907.452 408.497 907.452 414.597C907.452 423.297 906.852 430.797 905.952 433.797C904.652 437.897 902.652 441.797 900.152 445.297C895.152 451.697 886.052 458.097 877.752 460.997L875.352 461.897L875.452 472.397L875.552 482.897L877.752 483.097L879.952 483.297L882.952 487.797L885.852 492.297H899.252C906.652 492.297 913.152 492.397 913.752 492.497C914.752 492.697 914.952 492.597 915.952 490.897L917.152 489.097H928.652C937.552 489.097 940.152 489.197 940.152 489.497C939.852 489.397 938.552 494.297 937.052 499.897Z" fill="white"/>
<path d="M1136.25 385.697C1136.05 381.197 1135.65 374.897 1135.35 371.797C1131.05 326.397 1119.45 289.297 1097.45 249.997C1096.55 248.497 1095.75 246.997 1095.25 245.797C1095.05 245.497 1094.95 245.197 1094.85 244.997C1097.95 235.697 1110.65 196.797 1120.75 152.297C1134.45 91.897 1143.15 21.297 1116.55 0.097019C1116.55 0.097019 1070.55 -3.30298 1008.95 57.097C992.252 73.797 976.952 91.897 963.352 111.197L959.052 109.797C934.252 101.697 908.552 96.697 882.652 94.997C874.852 94.397 845.752 94.397 836.252 94.997C807.552 96.897 785.552 101.197 760.552 109.897C759.552 110.297 758.652 110.597 757.752 110.897C743.652 91.697 727.952 73.697 710.652 57.197C646.552 -3.50298 598.852 -0.00298708 598.852 -0.00298708C570.652 21.897 580.252 95.697 594.852 158.097C604.452 199.397 616.252 235.697 620.652 248.797C620.352 249.497 619.952 250.297 619.552 250.997C596.252 298.197 583.652 343.697 580.652 392.097C606.752 388.297 678.652 383.997 732.552 441.997C732.552 441.997 768.152 347.997 864.152 347.997C960.152 347.997 980.652 441.997 980.652 441.997C1044.25 389.497 1112.75 391.197 1136.75 393.697C1136.65 391.697 1136.45 388.697 1136.25 385.697ZM639.552 211.097C639.552 211.097 602.152 117.597 611.752 64.197C613.352 55.197 616.352 47.297 621.052 41.297C621.052 41.297 663.452 45.497 731.852 121.497C731.852 121.497 718.852 127.797 701.452 141.197C701.452 141.197 701.352 141.297 701.252 141.297C682.352 155.797 658.152 178.797 639.552 211.097ZM798.252 349.997C797.652 351.197 794.652 352.497 791.252 352.997C787.852 353.497 777.452 353.197 771.552 352.497C750.352 349.697 727.852 343.197 711.452 335.197C702.252 330.697 695.652 326.197 690.752 321.297L687.952 318.397L687.652 314.597C687.152 307.997 687.252 297.597 688.052 293.897C688.552 290.797 689.652 287.797 691.152 285.097C691.952 284.097 691.952 284.097 695.552 284.097C699.952 284.097 703.652 284.797 709.652 286.697C721.952 290.497 740.252 299.697 762.552 313.097C780.952 324.097 787.852 329.497 793.152 336.897C796.752 341.497 799.152 347.997 798.252 349.997ZM1033.85 316.897C1033.55 318.497 1028.85 323.297 1024.15 326.797C1010.35 336.897 985.652 346.297 960.552 350.797C946.252 353.397 931.952 353.797 927.652 351.697C924.852 350.297 924.452 349.197 925.452 345.597C927.552 338.097 934.352 329.897 944.952 322.197C950.352 318.297 972.252 304.997 982.452 299.397C999.252 290.197 1012.85 284.697 1022.05 283.397C1024.95 282.997 1028.45 282.897 1029.55 283.397C1031.35 284.097 1033.35 289.397 1034.15 295.797C1034.55 299.197 1034.35 314.197 1033.85 316.897ZM1017.25 141.197L1017.05 141.097C1000.25 127.697 987.652 121.397 987.652 121.397C1053.75 45.397 1094.65 41.197 1094.65 41.197C1099.15 47.297 1102.05 55.097 1103.65 64.097C1112.95 117.497 1076.85 211.097 1076.85 211.097C1061.75 184.197 1041.45 160.397 1017.25 141.197Z" fill="#FFA409"/>
<path d="M1103.75 64.097C1095.95 63.097 1059.05 62.897 1017.25 141.197L1017.05 141.097C1000.25 127.697 987.652 121.397 987.652 121.397C1053.75 45.397 1094.65 41.197 1094.65 41.197C1099.25 47.297 1102.15 55.097 1103.75 64.097Z" fill="#FF9300"/>
<path d="M1076.95 211.097C1061.75 184.097 1041.55 160.397 1017.25 141.197C1059.05 62.8971 1095.85 63.0971 1103.75 64.0971C1113.05 117.597 1076.95 211.097 1076.95 211.097Z" fill="#FF8300"/>
<path d="M1105.25 64.397C1104.75 64.297 1104.25 64.197 1103.75 64.097L1105.25 64.397Z" fill="#FF8300"/>
<path d="M731.852 121.397C731.852 121.397 718.852 127.697 701.452 141.097C701.452 141.097 701.352 141.197 701.252 141.197C657.952 62.797 619.852 63.097 611.652 64.097C613.252 55.097 616.252 47.197 620.952 41.197C621.052 41.197 663.452 45.397 731.852 121.397Z" fill="#FF9300"/>
<path d="M701.352 141.197C682.352 155.797 658.152 178.697 639.552 211.097C639.552 211.097 602.152 117.597 611.752 64.0971C619.852 63.0971 658.052 62.8971 701.352 141.197Z" fill="#FF8300"/>
<path d="M611.752 64.097C611.252 64.197 610.652 64.297 610.152 64.397L611.752 64.097Z" fill="#FF8300"/>
<path d="M975.752 262.997C975.752 262.997 943.752 264.997 947.752 239.997C951.752 214.997 976.752 211.997 983.752 212.997C990.752 213.997 1018.75 223.997 1013.75 244.997C1008.75 265.997 1001.75 261.997 997.752 262.997C993.752 263.997 975.752 262.997 975.752 262.997Z" fill="white"/>
<path d="M739.752 262.997C739.752 262.997 707.752 264.997 711.752 239.997C715.752 214.997 740.752 211.997 747.752 212.997C754.752 213.997 782.752 223.997 777.752 244.997C772.752 265.997 765.752 261.997 761.752 262.997C757.752 263.997 739.752 262.997 739.752 262.997Z" fill="white"/>
</g>
<path d="M1304 362.5L1303.29 363.207L1304.09 364L1304.78 363.122L1304 362.5ZM1366 284.5L1366.17 283.514L1365.58 283.415L1365.22 283.878L1366 284.5ZM1422 294L1421.83 294.986L1422.3 295.065L1422.65 294.758L1422 294ZM1483.5 241L1484.32 240.433L1483.69 239.515L1482.85 240.242L1483.5 241ZM1504.5 271.5L1503.68 272.067L1504.23 272.875L1505.05 272.334L1504.5 271.5ZM1651.48 175.2C1651.59 174.659 1651.24 174.131 1650.7 174.02L1641.88 172.22C1641.34 172.11 1640.81 172.459 1640.7 173C1640.59 173.541 1640.94 174.069 1641.48 174.18L1649.32 175.78L1647.72 183.618C1647.61 184.159 1647.96 184.688 1648.5 184.798C1649.04 184.908 1649.57 184.559 1649.68 184.018L1651.48 175.2ZM1177.79 237.707L1303.29 363.207L1304.71 361.793L1179.21 236.293L1177.79 237.707ZM1304.78 363.122L1366.78 285.122L1365.22 283.878L1303.22 361.878L1304.78 363.122ZM1365.83 285.486L1421.83 294.986L1422.17 293.014L1366.17 283.514L1365.83 285.486ZM1422.65 294.758L1484.15 241.758L1482.85 240.242L1421.35 293.242L1422.65 294.758ZM1482.68 241.567L1503.68 272.067L1505.32 270.933L1484.32 240.433L1482.68 241.567ZM1505.05 272.334L1651.05 175.834L1649.95 174.166L1503.95 270.666L1505.05 272.334Z" fill="url(#paint0_linear_2_297)" fill-opacity="0.4"/>
<path d="M348.078 364.725L348.785 365.432L347.993 366.225L347.295 365.347L348.078 364.725ZM286.078 286.725L285.911 285.739L286.493 285.64L286.861 286.103L286.078 286.725ZM230.078 296.225L230.245 297.211L229.782 297.29L229.425 296.983L230.078 296.225ZM168.578 243.225L167.754 242.658L168.387 241.74L169.231 242.468L168.578 243.225ZM147.578 273.725L148.402 274.292L147.845 275.1L147.027 274.559L147.578 273.725ZM0.598328 177.425C0.487885 176.884 0.837006 176.356 1.37811 176.245L10.1963 174.445C10.7374 174.335 11.2656 174.684 11.3761 175.225C11.4865 175.766 11.1374 176.294 10.5963 176.405L2.75793 178.005L4.35791 185.843C4.46838 186.384 4.11923 186.913 3.57812 187.023C3.03699 187.134 2.50879 186.784 2.39832 186.243L0.598328 177.425ZM474.285 239.932L348.785 365.432L347.371 364.018L472.871 238.518L474.285 239.932ZM347.295 365.347L285.295 287.347L286.861 286.103L348.861 364.103L347.295 365.347ZM286.245 287.711L230.245 297.211L229.911 295.239L285.911 285.739L286.245 287.711ZM229.425 296.983L167.925 243.983L169.231 242.468L230.731 295.468L229.425 296.983ZM169.402 243.792L148.402 274.292L146.754 273.158L167.754 242.658L169.402 243.792ZM147.027 274.559L1.02673 178.059L2.12952 176.391L148.13 272.891L147.027 274.559Z" fill="url(#paint1_linear_2_297)" fill-opacity="0.4"/>
<defs>
<linearGradient id="paint0_linear_2_297" x1="1650" y1="175" x2="1209" y2="333.5" gradientUnits="userSpaceOnUse">
<stop stop-color="#FFA409"/>
<stop offset="1" stop-color="#FFA409" stop-opacity="0"/>
</linearGradient>
<linearGradient id="paint1_linear_2_297" x1="2.07815" y1="177.225" x2="443.078" y2="335.725" gradientUnits="userSpaceOnUse">
<stop stop-color="#FFA409"/>
<stop offset="1" stop-color="#FFA409" stop-opacity="0"/>
</linearGradient>
<clipPath id="clip0_2_297">
<rect width="641.7" height="649" fill="white" transform="translate(539)"/>
</clipPath>
</defs>
</svg>
