<svg width="90" height="90" viewBox="0 0 90 90" fill="none" xmlns="http://www.w3.org/2000/svg">
<circle cx="45" cy="45" r="45" fill="#FFA400"/>
<path d="M45 28C34.5538 28 26 35.5457 26 44.9735C26 47.9382 26.8398 50.8199 28.4339 53.3433C29.2908 54.6974 29.3706 56.6268 28.0786 59.235C27.4915 60.4194 28.299 61.8225 29.6214 61.947C32.1997 62.1903 34.5557 61.5849 37.5178 60.3553C39.8795 61.2681 42.3704 61.947 45 61.947C55.4462 61.947 64 54.4013 64 44.9735C64 35.5457 55.4462 28 45 28ZM37.4 43.146C38.4488 43.146 39.3 43.9909 39.3 45.032C39.3 46.0749 38.4488 46.9179 37.4 46.9179C36.3512 46.9179 35.5 46.0749 35.5 45.032C35.5 43.9909 36.3512 43.146 37.4 43.146ZM45 43.146C46.0488 43.146 46.9 43.9909 46.9 45.032C46.9 46.0749 46.0488 46.9179 45 46.9179C43.9512 46.9179 43.1 46.0749 43.1 45.032C43.1 43.9909 43.9512 43.146 45 43.146ZM52.6 43.146C53.6488 43.146 54.5 43.9909 54.5 45.032C54.5 46.0749 53.6488 46.9179 52.6 46.9179C51.5512 46.9179 50.7 46.0749 50.7 45.032C50.7 43.9909 51.5512 43.146 52.6 43.146Z" fill="white"/>
</svg>
