<svg width="17" height="17" viewBox="0 0 17 17" fill="none" xmlns="http://www.w3.org/2000/svg">
<path d="M1.01167 0C0.755775 0 0.488175 0.0860058 0.292875 0.281006C-0.097625 0.672006 -0.097625 1.32799 0.292875 1.71899L6.57417 8L0.292875 14.281C-0.097625 14.672 -0.097625 15.328 0.292875 15.719C0.683475 16.109 1.33987 16.109 1.73047 15.719L8.01167 9.438L14.2929 15.719C14.6835 16.109 15.3399 16.109 15.7305 15.719C16.121 15.328 16.121 14.672 15.7305 14.281L9.44917 8L15.7305 1.71899C16.121 1.32799 16.121 0.672006 15.7305 0.281006C15.5352 0.0860058 15.2675 0 15.0117 0C14.7558 0 14.4883 0.0860058 14.2929 0.281006L8.01167 6.562L1.73047 0.281006C1.53517 0.0860058 1.26757 0 1.01167 0Z" fill="#182C43"/>
</svg>
