<svg width="16" height="17" viewBox="0 0 16 17" fill="none" xmlns="http://www.w3.org/2000/svg">
<path d="M8.25 4.5V6.5M1 3.25C1 2.14543 1.89543 1.25 3 1.25H13.5C14.6046 1.25 15.5 2.14543 15.5 3.25V10.75C15.5 11.8546 14.6046 12.75 13.5 12.75H10.875L8.25 15.75L5.625 12.75H3C1.89543 12.75 1 11.8546 1 10.75V3.25ZM8.75 9.5C8.75 9.7761 8.5261 10 8.25 10C7.9739 10 7.75 9.7761 7.75 9.5C7.75 9.2239 7.9739 9 8.25 9C8.5261 9 8.75 9.2239 8.75 9.5Z" stroke="white" stroke-linecap="round" stroke-linejoin="round"/>
</svg>
