<svg width="48" height="49" viewBox="0 0 48 49" fill="none" xmlns="http://www.w3.org/2000/svg">
<circle cx="24" cy="24.5" r="24" fill="white"/>
<g clip-path="url(#clip0_2_534)">
<path fill-rule="evenodd" clip-rule="evenodd" d="M24.5 33.625H21.625V35.7812C21.625 36.178 21.9463 36.5 22.3438 36.5H23.0625V35.0625H24.5V36.5H25.9375V32.1875H24.5V33.625ZM13 25V26.4375H14.4375V25H13ZM14.4375 27.875H17.3125V26.4375H14.4375V27.875ZM13.7188 22.125C13.3213 22.125 13 22.4463 13 22.8438V23.5625H14.4375V22.125H13.7188ZM21.625 25V27.875H23.0625V25H21.625ZM33.125 27.875H34.5625V26.4375H33.125V27.875ZM13.7188 20.6875H19.4688C19.8655 20.6875 20.1875 20.3655 20.1875 19.9688V14.2188C20.1875 13.8213 19.8655 13.5 19.4688 13.5H13.7188C13.3213 13.5 13 13.8213 13 14.2188V19.9688C13 20.3655 13.3213 20.6875 13.7188 20.6875ZM14.4375 14.9375H18.75V19.25H14.4375V14.9375ZM17.3125 32.1875H15.875V33.625H17.3125V32.1875ZM15.875 17.8125H17.3125V16.375H15.875V17.8125ZM35.2812 29.3125H29.5312C29.1338 29.3125 28.8125 29.6338 28.8125 30.0312V35.7812C28.8125 36.178 29.1338 36.5 29.5312 36.5H35.2812C35.678 36.5 36 36.178 36 35.7812V30.0312C36 29.6338 35.678 29.3125 35.2812 29.3125ZM34.5625 35.0625H30.25V30.75H34.5625V35.0625ZM36 26.4375V25H34.5625V26.4375H36ZM33.125 32.1875H31.6875V33.625H33.125V32.1875ZM19.4688 29.3125H13.7188C13.3213 29.3125 13 29.6338 13 30.0312V35.7812C13 36.178 13.3213 36.5 13.7188 36.5H19.4688C19.8655 36.5 20.1875 36.178 20.1875 35.7812V30.0312C20.1875 29.6338 19.8655 29.3125 19.4688 29.3125ZM18.75 35.0625H14.4375V30.75H18.75V35.0625ZM23.0625 30.75V29.3125H21.625V32.1875H24.5V30.75H23.0625ZM31.6875 22.125H30.25V23.5625H31.6875V22.125ZM24.5 23.5625H23.0625V25H24.5V23.5625ZM25.9375 23.5625V25H27.375V26.4375H25.9375V25H24.5V27.875H23.0625V29.3125H24.5V30.75H25.9375V32.1875H27.375V29.3125H25.9375V27.875H28.8125V25H30.25V23.5625H25.9375ZM24.5 19.25H23.0625V20.6875H24.5V19.25ZM25.9375 23.5625V22.125H27.375V20.6875H24.5V23.5625H25.9375ZM35.2812 13.5H29.5312C29.1338 13.5 28.8125 13.8213 28.8125 14.2188V19.9688C28.8125 20.3655 29.1338 20.6875 29.5312 20.6875H35.2812C35.678 20.6875 36 20.3655 36 19.9688V14.2188C36 13.8213 35.678 13.5 35.2812 13.5ZM34.5625 19.25H30.25V14.9375H34.5625V19.25ZM33.125 16.375H31.6875V17.8125H33.125V16.375ZM35.2812 22.125H33.125V23.5625H31.6875V25H30.25V26.4375H33.125V25H34.5625V23.5625H36V22.8438C36 22.4463 35.678 22.125 35.2812 22.125ZM21.625 16.375V19.25H23.0625V16.375H21.625ZM17.3125 23.5625H18.75V22.125H15.875V23.5625H14.4375V25H17.3125V23.5625ZM21.625 20.6875V22.125H20.1875V23.5625H23.0625V20.6875H21.625ZM18.75 25H17.3125V26.4375H18.75V27.875H20.1875V23.5625H18.75V25ZM25.9375 19.25V17.8125H27.375V16.375H24.5V19.25H25.9375ZM24.5 14.9375H23.0625V16.375H24.5V14.9375ZM22.3438 13.5C21.9463 13.5 21.625 13.8213 21.625 14.2188V14.9375H23.0625V13.5H22.3438ZM27.375 14.2188C27.375 13.8213 27.053 13.5 26.6562 13.5H24.5V14.9375H27.375V14.2188Z" fill="#FFA409"/>
</g>
<rect x="13.5" y="14" width="22" height="22" stroke="#FFA409"/>
<defs>
<clipPath id="clip0_2_534">
<rect x="13" y="13.5" width="23" height="23" fill="white"/>
</clipPath>
</defs>
</svg>
