<svg width="48" height="49" viewBox="0 0 48 49" fill="none" xmlns="http://www.w3.org/2000/svg">
<circle cx="24" cy="24.5" r="24" fill="white"/>
<path d="M24.5 14.5964L34.9945 19.3129C34.9953 19.3527 34.9961 19.3944 34.9968 19.4378C35.0042 19.9068 35.0013 20.5811 34.9594 21.3918C34.8752 23.0189 34.6352 25.1679 34.0207 27.3007C33.4041 29.4405 32.4301 31.4954 30.9239 33.0056C29.4438 34.4895 27.3999 35.5 24.5 35.5C21.6001 35.5 19.5562 34.4895 18.0761 33.0056C16.5699 31.4954 15.5959 29.4405 14.9793 27.3007C14.3648 25.1679 14.1248 23.0189 14.0406 21.3918C13.9987 20.5811 13.9958 19.9068 14.0032 19.4378C14.0039 19.3944 14.0047 19.3527 14.0055 19.3129L24.5 14.5964Z" stroke="#FFA409" stroke-width="2" stroke-linecap="round" stroke-linejoin="round"/>
</svg>
